# xmcd
#
# Track frame offsets: 
#        150
#        14313
#        28220
#        40412
#        54584
#        69790
#        84665
#        102005
#        115026
#        130031
#        141883
#        153765
#        167542
#        178958
#
# Disc length: 2503 seconds
#
# Revision: 0
# Processed by: cddbd v1.5.2PL0 Copyright (c) Steve Scherf et al.
# Submitted via: ExactAudioCopy v0.99pb3
#
DISCID=af09c50e
DTITLE=Annie Lou - Annie Lou
DYEAR=2009
DGENRE=Bluegrass
TTITLE0=Spit and Polish
TTITLE1=The Whippoorwill
TTITLE2=Done My Time
TTITLE3=Heavy Heart
TTITLE4=Kitchen Girl/ Tater Patch
TTITLE5=Trouble and Strife
TTITLE6=Are You Sure Lord
TTITLE7=Emmaline
TTITLE8=Living In Caroline
TTITLE9=Chicken Bone
TTITLE10=I wish I Felt This Good Without the Whiskey
TTITLE11=Single Girl
TTITLE12=Bowling Green
TTITLE13=Up All Night Again
EXTD=
EXTT0=
EXTT1=
EXTT2=
EXTT3=
EXTT4=
EXTT5=
EXTT6=
EXTT7=
EXTT8=
EXTT9=
EXTT10=
EXTT11=
EXTT12=
EXTT13=
PLAYORDER=
